<?xml version="1.0" standalone="no"?>
<!DOCTYPE svg PUBLIC "-//W3C//DTD SVG 20010904//EN"
 "http://www.w3.org/TR/2001/REC-SVG-20010904/DTD/svg10.dtd">
<svg version="1.0" xmlns="http://www.w3.org/2000/svg"
 width="248.000000pt" height="248.000000pt" viewBox="0 0 248.000000 248.000000"
 preserveAspectRatio="xMidYMid meet">
<metadata>
Created by potrace 1.11, written by Peter Selinger 2001-2013
</metadata>
<g transform="translate(0.000000,248.000000) scale(0.100000,-0.100000)"
fill="#000000" stroke="none">
<path d="M1035 2015 c-28 -6 -56 -14 -62 -18 -6 -4 -14 -3 -18 3 -10 17 -53
11 -67 -9 -22 -30 -57 -36 -74 -12 -27 38 -68 23 -76 -28 -2 -21 -15 -28 -85
-51 -45 -14 -124 -47 -175 -72 -61 -30 -102 -45 -116 -42 -11 4 -38 -3 -59
-14 -21 -11 -60 -25 -88 -31 -123 -29 -204 -157 -210 -331 -5 -130 15 -210 67
-271 13 -14 33 -29 45 -33 12 -4 31 -22 43 -40 53 -87 200 -202 348 -272 39
-19 72 -36 72 -38 0 -2 -6 -19 -14 -37 -35 -84 -23 -191 28 -238 80 -76 217 0
242 134 3 19 8 35 11 35 2 0 15 -11 29 -25 14 -14 30 -25 37 -26 7 -1 24 -2
39 -3 18 -2 39 7 63 27 27 22 39 26 49 18 7 -6 30 -9 50 -7 19 3 50 -1 68 -8
18 -8 47 -12 63 -9 17 2 39 4 50 4 11 0 40 -1 65 -2 25 0 50 -5 57 -11 29 -23
71 -19 105 10 27 24 41 29 74 27 22 -2 55 4 73 12 24 12 35 13 44 4 31 -31
111 0 139 55 9 17 38 36 92 59 181 78 346 207 410 320 16 28 41 64 57 80 31
33 55 84 64 135 6 36 -17 73 -40 64 -13 -5 -21 11 -30 54 -2 11 -13 40 -24 65
-130 285 -584 492 -1100 501 -54 1 -83 6 -101 18 -29 20 -70 20 -145 3z m-330
-1299 c42 -30 17 -176 -30 -176 -37 0 -52 85 -25 148 21 46 27 49 55 28z"/>
</g>
</svg>
